<svg width="21" height="18" viewBox="0 0 21 18" fill="none" xmlns="http://www.w3.org/2000/svg">
<path d="M7.1575 10.7302C6.65529 10.7302 6.24439 11.1411 6.24439 11.6433C6.24439 12.1455 6.65529 12.5564 7.1575 12.5564C7.65972 12.5564 8.07063 12.1455 8.07063 11.6433C8.07063 11.1411 7.65972 10.7302 7.1575 10.7302Z" fill="#463B00"/>
<path d="M13.3899 10.7302C12.8877 10.7302 12.4768 11.1411 12.4768 11.6433C12.4768 12.1455 12.8877 12.5564 13.3899 12.5564C13.8921 12.5564 14.303 12.1455 14.303 11.6433C14.303 11.1411 13.8921 10.7302 13.3899 10.7302Z" fill="#463B00"/>
<path d="M10.2046 13.8923C9.6339 13.8923 9.16593 14.1662 9.24583 14.4173C9.31431 14.6684 9.86218 15.0793 10.2046 15.0793C10.547 15.0793 11.0949 14.6684 11.1634 14.4173C11.2319 14.1662 10.7639 13.8923 10.2046 13.8923Z" fill="#463B00"/>
<path d="M10.2726 0C4.59984 0 0 4.59984 0 10.284C0 13.3544 1.35826 16.1166 3.49268 17.9999C4.02914 17.0183 4.83953 16.3448 4.83953 16.3448C2.62522 14.199 3.70955 11.3113 3.70955 11.3113C2.6937 10.4895 2.3627 8.68605 3.15027 7.9898C3.93783 7.30496 5.36457 7.9898 5.36457 7.9898C6.22062 7.08809 7.46475 6.39184 10.2726 6.39184C13.0804 6.39184 14.3246 7.08809 15.1806 7.9898C15.1806 7.9898 16.6074 7.30496 17.3949 7.9898C18.1825 8.67464 17.8401 10.478 16.8356 11.3113C16.8356 11.3113 17.92 14.199 15.7057 16.3448C15.7057 16.3448 16.516 17.0183 17.0525 17.9999C19.1983 16.1166 20.5566 13.3658 20.5566 10.284C20.5566 4.61125 15.9568 0 10.2726 0Z" fill="#463B00"/>
</svg>
