<svg width="21" height="20" viewBox="0 0 21 20" fill="none" xmlns="http://www.w3.org/2000/svg">
<path d="M7.40215 12.4755C6.9489 12.4755 6.57496 12.8381 6.57496 13.3027C6.57496 13.7673 6.9489 14.1299 7.40215 14.1299C7.85541 14.1299 8.22936 13.7673 8.22936 13.3027C8.22936 12.8381 7.85541 12.4755 7.40215 12.4755Z" fill="#463B00"/>
<path d="M13.8151 13.3027C13.8151 12.8495 13.4412 12.4755 12.9879 12.4755C12.5346 12.4755 12.1607 12.8381 12.1607 13.3027C12.1607 13.7673 12.5233 14.1299 12.9879 14.1299C13.4525 14.1299 13.8151 13.7673 13.8151 13.3027Z" fill="#463B00"/>
<path d="M10.131 15.3191C9.62109 15.3191 9.20182 15.557 9.26981 15.7837C9.3378 16.0103 9.81372 16.3842 10.131 16.3842C10.4483 16.3842 10.9355 16.0103 10.9922 15.7837C11.0602 15.557 10.6409 15.3191 10.131 15.3191Z" fill="#463B00"/>
<path d="M10.1983 0C4.56658 0 0 4.56658 0 10.2097C0 14.8442 3.09349 18.7536 7.33146 20C8.69124 17.6431 7.24081 17.6431 6.09633 17.0312C4.80454 16.34 3.36545 15.5354 3.86404 12.1813C4.102 10.6063 4.88386 9.21249 5.94902 8.18132C4.66857 4.94052 5.39378 2.90086 6.54959 2.96885C7.45611 3.02551 8.14732 5.41645 8.44194 6.61758C9.01985 6.41362 9.62041 6.30029 10.221 6.30029C10.8216 6.30029 11.4108 6.41362 12 6.61758C12.2946 5.41645 12.9745 3.02551 13.8924 2.96885C15.0482 2.90086 15.7734 4.95185 14.493 8.18132C15.5581 9.21249 16.34 10.6063 16.5779 12.1813C17.0765 15.5468 15.6374 16.34 14.3456 17.0312C13.2012 17.6431 11.7507 17.6431 13.1105 20C17.3371 18.7536 20.442 14.8442 20.442 10.2097C20.442 4.57792 15.8754 0 10.2323 0H10.1983Z" fill="#463B00"/>
</svg>
