<svg width="20" height="18" viewBox="0 0 20 18" fill="none" xmlns="http://www.w3.org/2000/svg">
<path d="M7.9769 9.50017C7.9769 9.03278 7.59647 8.65234 7.12908 8.65234C6.66168 8.65234 6.28125 9.03278 6.28125 9.50017C6.28125 9.96756 6.66168 10.348 7.12908 10.348C7.59647 10.348 7.9769 9.96756 7.9769 9.50017Z" fill="#463B00"/>
<path d="M13.7269 9.50017C13.7269 9.03278 13.3465 8.65234 12.8791 8.65234C12.4117 8.65234 12.0312 9.03278 12.0312 9.50017C12.0312 9.96756 12.4117 10.348 12.8791 10.348C13.3465 10.348 13.7269 9.96756 13.7269 9.50017Z" fill="#463B00"/>
<path d="M10 0C4.47826 0 0 4.47826 0 10C0 13.0652 1.38042 15.8044 3.55434 17.6413C4.71738 16.7283 6.42391 16.1304 6.80434 15.4022C7.33695 14.3804 6.27173 14.5 5.36955 12.9239C4.46738 11.337 5.41304 9.36957 5.41304 9.36957C4.41304 11.3696 2.46739 11.1739 2.54348 9.76087C2.61956 8.34783 5.0326 6.73913 5.0326 6.73913C5.0326 6.73913 3.98913 4.30435 4.59782 4.20652C5.20652 4.1087 6.52174 5.47826 6.52174 5.47826C7.22826 5.08696 8.70652 4.76087 10 4.76087C11.2935 4.76087 12.7717 5.08696 13.4783 5.47826C13.4783 5.47826 14.7935 4.11957 15.4022 4.20652C16.0109 4.30435 14.9674 6.73913 14.9674 6.73913C14.9674 6.73913 17.3804 8.34783 17.4565 9.76087C17.5326 11.1739 15.5761 11.3696 14.5761 9.36957C14.5761 9.36957 15.5217 11.3478 14.6304 12.9239C13.7283 14.5109 12.6522 14.3804 13.1957 15.4022C13.5761 16.1413 15.2826 16.7391 16.4456 17.6413C18.6196 15.8044 20 13.0652 20 10C20 4.47826 15.5217 0 10 0Z" fill="#463B00"/>
<path d="M9.99865 11.0654C8.62908 11.0654 7.53125 11.848 7.53125 12.8154C7.53125 13.7828 8.63995 14.5654 9.99865 14.5654C11.3573 14.5654 12.4769 13.7828 12.4769 12.8154C12.4769 11.848 11.3682 11.0654 9.99865 11.0654ZM8.82473 13.1198C8.60734 13.1198 8.42256 12.9459 8.42256 12.7176C8.42256 12.4893 8.60734 12.3154 8.82473 12.3154C9.04212 12.3154 9.2269 12.4893 9.2269 12.7176C9.2269 12.9459 9.04212 13.1198 8.82473 13.1198ZM11.2378 13.1198C11.0204 13.1198 10.8356 12.9459 10.8356 12.7176C10.8356 12.4893 11.0204 12.3154 11.2378 12.3154C11.4552 12.3154 11.6399 12.4893 11.6399 12.7176C11.6399 12.9459 11.4552 13.1198 11.2378 13.1198Z" fill="#463B00"/>
</svg>
