<svg width="20" height="18" viewBox="0 0 20 18" fill="none" xmlns="http://www.w3.org/2000/svg">
<path d="M7.54589 9.69017C7.12413 9.69017 6.76896 10.0342 6.76896 10.4671C6.76896 10.8999 7.11303 11.244 7.54589 11.244C7.97874 11.244 8.3228 10.8999 8.3228 10.4671C8.3228 10.0342 7.97874 9.69017 7.54589 9.69017Z" fill="#463B00"/>
<path d="M13.5731 10.4543C13.5731 10.0214 13.229 9.67739 12.7962 9.67739C12.3633 9.67739 12.0193 10.0214 12.0193 10.4543C12.0193 10.8872 12.3633 11.2312 12.7962 11.2312C13.229 11.2312 13.5731 10.8872 13.5731 10.4543Z" fill="#463B00"/>
<path d="M10.1103 12.3527C9.63305 12.3527 9.2335 12.5858 9.30009 12.7967C9.36669 13.0075 9.82173 13.3627 10.1103 13.3627C10.3989 13.3627 10.865 13.0186 10.9205 12.7967C10.9871 12.5858 10.5875 12.3527 10.1103 12.3527Z" fill="#463B00"/>
<path d="M9.99999 0C4.4839 0 0 4.4728 0 9.99999C0 13.1298 1.43173 15.9156 3.68478 17.7469C5.03884 16.5039 7.31409 15.3607 6.51498 14.8058C5.52719 14.1065 5.60489 13.4517 5.60489 13.4517C5.60489 13.4517 3.99555 14.4062 3.00776 13.2297C2.01997 12.0644 3.00777 9.50055 3.85128 8.19089C4.69478 6.88124 5.58268 7.2031 5.58268 7.2031C5.58268 7.2031 7.33628 5.73807 9.99999 5.73807C12.6637 5.73807 14.4173 7.2031 14.4173 7.2031C14.4173 7.2031 15.3052 6.87014 16.1487 8.19089C16.9922 9.50055 17.9689 12.0644 16.9922 13.2297C16.0044 14.3951 14.3951 13.4517 14.3951 13.4517C14.3951 13.4517 14.4728 14.1065 13.485 14.8058C12.6859 15.3718 14.95 16.5039 16.3152 17.7469C18.5572 15.9156 20 13.1298 20 9.99999C20 4.4839 15.5272 0 10.0111 0H9.99999Z" fill="#463B00"/>
</svg>
