<svg width="21" height="20" viewBox="0 0 21 20" fill="none" xmlns="http://www.w3.org/2000/svg">
<path d="M6.45898 11.0932C6.45898 11.5386 6.82646 11.9061 7.2719 11.9061C7.71733 11.9061 8.08483 11.5386 8.08483 11.0932C8.08483 10.6478 7.71733 10.2803 7.2719 10.2803C6.82646 10.2803 6.45898 10.6366 6.45898 11.0932Z" fill="#463B00"/>
<path d="M12.7739 11.9061C13.2193 11.9061 13.5868 11.5386 13.5868 11.0932C13.5868 10.6478 13.2304 10.2803 12.7739 10.2803C12.3173 10.2803 11.9609 10.6366 11.9609 11.0932C11.9609 11.5498 12.3284 11.9061 12.7739 11.9061Z" fill="#463B00"/>
<path d="M10.0223 0C4.48775 0 0 4.48775 0 10.0334C0 15.1893 3.89755 19.4321 8.90868 20C8.95323 19.0423 8.96436 17.784 8.05122 16.7929C6.88195 15.5234 6.63698 14.9889 6.63698 14.9889C6.63698 14.9889 3.89754 16.0913 2.60579 12.6169C1.31403 9.15367 3.11804 6.19154 4.26503 5.45657C5.41203 4.7216 6.97106 6.23608 6.97106 6.23608C7.29399 5.93542 8.65257 5.44543 10.0334 5.44543C11.4143 5.44543 12.7617 5.93542 13.0958 6.23608C13.0958 6.23608 14.6548 4.7216 15.8018 5.45657C16.9488 6.19154 18.7528 9.14254 17.461 12.6169C16.1693 16.0802 13.4298 14.9889 13.4298 14.9889C13.4298 14.9889 13.1849 15.5234 12.0156 16.7929C11.1025 17.784 11.1136 19.0423 11.1581 20C16.1693 19.4432 20.0668 15.2004 20.0668 10.0334C20.0668 4.49889 15.5791 0 10.0445 0H10.0223Z" fill="#463B00"/>
</svg>
