<svg width="21" height="15" viewBox="0 0 21 15" fill="none" xmlns="http://www.w3.org/2000/svg">
<path d="M6.62379 9.3252C6.05512 9.3252 5.59375 9.78657 5.59375 10.3552C5.59375 10.9239 6.05512 11.3853 6.62379 11.3853C7.19246 11.3853 7.65384 10.9239 7.65384 10.3552C7.65384 9.78657 7.19246 9.3252 6.62379 9.3252Z" fill="#463B00"/>
<path d="M13.5847 9.3252C13.0161 9.3252 12.5547 9.78657 12.5547 10.3552C12.5547 10.9239 13.0161 11.3853 13.5847 11.3853C14.1534 11.3853 14.6148 10.9239 14.6148 10.3552C14.6148 9.78657 14.1534 9.3252 13.5847 9.3252Z" fill="#463B00"/>
<path d="M10.0236 12.8555C9.39054 12.8555 8.86479 13.1559 8.95062 13.4349C9.02573 13.7138 9.63732 14.1752 10.0236 14.1752C10.4099 14.1752 11.0214 13.7138 11.0965 13.4349C11.1717 13.1559 10.6566 12.8555 10.0236 12.8555Z" fill="#463B00"/>
<path d="M10.0215 0C4.48498 0 0 4.48498 0 10.0215C0 11.8348 0.482832 13.53 1.33047 15C1.99571 12.5429 3.16524 10.2468 3.43348 9.74249C3.46566 9.67811 3.49785 9.63519 3.49785 9.63519C2.9721 8.87339 2.73605 6.53434 3.49785 6.53434C4.25966 6.53434 5.56867 7.33906 5.56867 7.33906C5.56867 7.33906 7.26395 6.25536 10.0215 6.25536C12.779 6.25536 14.4742 7.33906 14.4742 7.33906C14.4742 7.33906 15.7833 6.53434 16.5451 6.53434C17.3069 6.53434 17.0708 8.86266 16.5451 9.63519C16.5451 9.63519 16.5665 9.67811 16.5987 9.74249C16.8669 10.2468 18.0365 12.5429 18.7017 15C19.5494 13.53 20.0322 11.8348 20.0322 10.0215C20.0322 4.48498 15.5472 0 10.0215 0Z" fill="#463B00"/>
</svg>
