<svg width="20" height="18" viewBox="0 0 20 18" fill="none" xmlns="http://www.w3.org/2000/svg">
<path d="M6.52198 11.1992C5.95453 11.1992 5.49414 11.6596 5.49414 12.2271C5.49414 12.7945 5.95453 13.2549 6.52198 13.2549C7.08943 13.2549 7.54981 12.7945 7.54981 12.2271C7.54981 11.6596 7.08943 11.1992 6.52198 11.1992Z" fill="#463B00"/>
<path d="M13.4692 11.1992C12.9018 11.1992 12.4414 11.6596 12.4414 12.2271C12.4414 12.7945 12.9018 13.2549 13.4692 13.2549C14.0367 13.2549 14.4971 12.7945 14.4971 12.2271C14.4971 11.6596 14.0367 11.1992 13.4692 11.1992Z" fill="#463B00"/>
<path d="M9.90603 14.7324C9.27434 14.7324 8.74972 15.0322 8.83537 15.3106C8.92102 15.589 9.52059 16.0493 9.90603 16.0493C10.2915 16.0493 10.9018 15.589 10.9767 15.3106C11.0624 15.0322 10.5377 14.7324 9.90603 14.7324Z" fill="#463B00"/>
<path d="M9.9893 0.0107066C4.46467 0.0107066 0 4.48608 0 10.0107C0 13.0407 1.35975 15.7495 3.49037 17.591V7.0985C3.49037 5.47109 4.10064 5.47109 4.70021 6.19914C5.29979 6.92719 6.4454 7.95503 6.4454 7.95503C6.4454 7.95503 7.59101 7.39829 10 7.39829C12.409 7.39829 13.5546 7.95503 13.5546 7.95503C13.5546 7.95503 14.7002 6.91649 15.2998 6.19914C15.8994 5.4818 16.5096 5.4818 16.5096 7.0985V17.5803C18.6403 15.7495 20 13.0407 20 10C20 4.47537 15.5246 0 10 0L9.9893 0.0107066Z" fill="#463B00"/>
</svg>
