<svg width="21" height="18" viewBox="0 0 21 18" fill="none" xmlns="http://www.w3.org/2000/svg">
<path d="M7.67905 8.65114C7.25619 8.65114 6.91333 8.994 6.91333 9.41686C6.91333 9.83972 7.25619 10.1826 7.67905 10.1826C8.1019 10.1826 8.44476 9.83972 8.44476 9.41686C8.44476 8.994 8.1019 8.65114 7.67905 8.65114Z" fill="#463B00"/>
<path d="M13.6652 9.41686C13.6652 8.994 13.3223 8.65114 12.8995 8.65114C12.4766 8.65114 12.1338 8.994 12.1338 9.41686C12.1338 9.83972 12.4766 10.1826 12.8995 10.1826C13.3223 10.1826 13.6652 9.83972 13.6652 9.41686Z" fill="#463B00"/>
<path d="M10.2267 10.366C9.52958 10.366 8.96958 11.1089 8.82101 12.0574C8.67244 13.006 8.71815 13.5546 9.14101 13.8974C9.56387 14.2403 10.0439 13.9774 10.0439 13.5088C10.0439 13.2117 9.59815 13.0974 9.48386 12.846C9.381 12.5946 9.66672 12.4803 9.79244 12.4803H10.6496C10.7867 12.4803 11.0724 12.5831 10.9696 12.846C10.8667 13.0974 10.4096 13.2117 10.4096 13.5088C10.4096 13.9774 10.8896 14.2517 11.3124 13.8974C11.7353 13.5546 11.781 13.006 11.6324 12.0574C11.4839 11.1089 10.9239 10.366 10.2267 10.366Z" fill="#463B00"/>
<path d="M10.2857 0C4.60571 0 0 4.60571 0 10.2857C0 13.36 1.35999 16.1143 3.49713 18C4.46856 16.0914 5.97713 14.9714 7.3257 14.32C7.03998 14.1257 6.61713 13.9086 5.98856 13.6114C3.99999 12.6743 4.62856 10.7314 4.91427 9.47427C5.19999 8.21713 2.46857 9.58856 2.12571 7.43999C1.78285 5.29142 3.61142 4.18285 5.0057 4.31999C6.39999 4.45713 7.18856 6.29713 7.18856 6.29713C7.89713 5.77142 9.37141 5.41714 10.2971 5.41714C11.2228 5.41714 12.6857 5.77142 13.4057 6.29713C13.4057 6.29713 14.1943 4.45713 15.5885 4.31999C16.9828 4.19428 18.8114 5.30285 18.4685 7.43999C18.1257 9.58856 15.4057 8.2057 15.68 9.47427C15.9657 10.7314 16.6057 12.6743 14.6057 13.6114C13.9771 13.9086 13.5543 14.1257 13.2685 14.32C14.6171 14.9714 16.1143 16.0914 17.0971 18C19.2343 16.1143 20.5942 13.36 20.5942 10.2857C20.5942 4.60571 15.9885 0 10.2971 0H10.2857Z" fill="#463B00"/>
</svg>
