<svg width="20" height="19" viewBox="0 0 20 19" fill="none" xmlns="http://www.w3.org/2000/svg">
<path d="M7.04042 10.6094C6.56376 10.6094 6.17578 10.9974 6.17578 11.474C6.17578 11.9507 6.56376 12.3387 7.04042 12.3387C7.51709 12.3387 7.90507 11.9507 7.90507 11.474C7.90507 10.9974 7.51709 10.6094 7.04042 10.6094Z" fill="#463B00"/>
<path d="M13.7898 11.474C13.7898 10.9974 13.4019 10.6094 12.9252 10.6094C12.4485 10.6094 12.0605 10.9974 12.0605 11.474C12.0605 11.9507 12.4485 12.3387 12.9252 12.3387C13.4019 12.3387 13.7898 11.9507 13.7898 11.474Z" fill="#463B00"/>
<path d="M9.90781 13.5908C9.37572 13.5908 8.9323 13.8458 8.99882 14.0786C9.06533 14.3114 9.57525 14.7104 9.90781 14.7104C10.2404 14.7104 10.7503 14.3224 10.8168 14.0786C10.8833 13.8458 10.4399 13.5908 9.90781 13.5908Z" fill="#463B00"/>
<path d="M9.97666 0C4.46733 0 0 4.46732 0 9.98774C0 13.9673 2.33898 17.4037 5.71996 19C6.49592 18.3238 6.76195 17.5368 6.67327 16.6167C6.5735 15.5414 4.67795 16.007 4.00175 14.2112C3.3699 12.238 4.43407 10.3203 4.43407 10.3203C4.43407 10.3203 3.96849 9.71062 3.70245 8.85706C3.4364 8.0035 3.23687 6.76196 3.70245 6.08576C4.16802 5.40957 6.0636 7.97024 6.0636 7.97024C6.0636 7.97024 7.37165 6.76196 9.91015 6.76196H10.0432C12.5817 6.76196 13.8897 7.97024 13.8897 7.97024C13.8897 7.97024 15.7853 5.40957 16.2509 6.08576C16.7165 6.76196 16.5169 8.0035 16.2509 8.85706C15.9848 9.71062 15.5193 10.3203 15.5193 10.3203C15.5193 10.3203 16.5945 12.238 15.9627 14.2112C15.2865 16.007 13.3909 15.5525 13.2911 16.6167C13.2024 17.5368 13.4685 18.3238 14.2444 19C17.6254 17.4037 19.9644 13.9673 19.9644 9.98774C19.9644 4.47841 15.4971 0 9.98774 0H9.97666Z" fill="#463B00"/>
</svg>
