<svg width="20" height="18" viewBox="0 0 20 18" fill="none" xmlns="http://www.w3.org/2000/svg">
<path d="M6.47419 9.1377C5.91695 9.1377 5.46484 9.5898 5.46484 10.147C5.46484 10.7043 5.91695 11.1564 6.47419 11.1564C7.03143 11.1564 7.48353 10.7043 7.48353 10.147C7.48353 9.5898 7.03143 9.1377 6.47419 9.1377Z" fill="#463B00"/>
<path d="M13.3082 9.1377C12.7509 9.1377 12.2988 9.5898 12.2988 10.147C12.2988 10.7043 12.7509 11.1564 13.3082 11.1564C13.8654 11.1564 14.3175 10.7043 14.3175 10.147C14.3175 9.5898 13.8654 9.1377 13.3082 9.1377Z" fill="#463B00"/>
<path d="M9.80848 12.6064C9.18815 12.6064 8.67297 12.9008 8.75708 13.1742C8.84119 13.4476 9.42998 13.8997 9.80848 13.8997C10.187 13.8997 10.7863 13.4476 10.8599 13.1742C10.9335 12.9008 10.4288 12.6064 9.80848 12.6064Z" fill="#463B00"/>
<path d="M9.80957 0C4.39485 0 0 4.39486 0 9.80958C0 13.2371 1.75584 16.2442 4.4264 18C6.24533 15.6974 4.88901 14.5409 3.79555 13.0058C3.73247 12.9322 3.66939 12.8586 3.61682 12.7745C2.43925 11.0397 3.41706 9.42056 3.41706 9.42056C2.43925 6.46612 4.56308 6.70794 5.44625 7.17056C5.44625 7.17056 7.10747 6.10864 9.80957 6.10864C12.5117 6.10864 14.1729 7.17056 14.1729 7.17056C15.0561 6.70794 17.1799 6.46612 16.2021 9.42056C16.2021 9.42056 17.1904 11.0397 16.0023 12.7745C15.9498 12.8586 15.8867 12.9322 15.8236 13.0058C14.7406 14.5409 13.3002 16.0654 15.1928 18C17.8528 16.2442 19.6192 13.2371 19.6192 9.80958C19.6192 4.38435 15.2243 0 9.79906 0H9.80957Z" fill="#463B00"/>
</svg>
