<svg width="20" height="19" viewBox="0 0 20 19" fill="none" xmlns="http://www.w3.org/2000/svg">
<path d="M6.7223 9.33887C6.19052 9.33887 5.76953 9.77094 5.76953 10.2916C5.76953 10.8123 6.2016 11.2444 6.7223 11.2444C7.243 11.2444 7.67507 10.8123 7.67507 10.2916C7.67507 9.77094 7.243 9.33887 6.7223 9.33887Z" fill="#463B00"/>
<path d="M14.179 10.3034C14.179 9.77158 13.7469 9.35059 13.2262 9.35059C12.7055 9.35059 12.2734 9.78266 12.2734 10.3034C12.2734 10.8241 12.7055 11.2561 13.2262 11.2561C13.7469 11.2561 14.179 10.8241 14.179 10.3034Z" fill="#463B00"/>
<path d="M9.89316 12.6406C9.30599 12.6406 8.81852 12.9176 8.88499 13.1835C8.96254 13.4494 9.51648 13.8814 9.89316 13.8814C10.2698 13.8814 10.8238 13.4494 10.9013 13.1835C10.9789 12.9176 10.4914 12.6406 9.89316 12.6406Z" fill="#463B00"/>
<path d="M9.97085 0C4.46472 0 0 4.46472 0 9.98193C0 13.9703 2.3376 17.3936 5.71661 19C5.97142 18.6566 6.24839 18.2799 6.51428 17.8589C8.29796 15.0671 6.59183 15.3773 5.11836 14.1808C3.64489 12.9843 4.2653 10.8904 4.2653 10.8904C1.13003 10.1149 1.62857 7.13469 3.10204 6.25948C4.5755 5.38426 6.15976 6.90204 6.15976 6.90204C6.15976 6.90204 7.74402 5.62799 9.97085 5.62799C12.1977 5.62799 13.7819 6.90204 13.7819 6.90204C13.7819 6.90204 15.3662 5.39534 16.8396 6.25948C18.3131 7.13469 18.8117 10.1149 15.6764 10.8904C15.6764 10.8904 16.2968 12.9843 14.8233 14.1808C13.3499 15.3773 11.6437 15.0671 13.4274 17.8589C13.6933 18.2799 13.9703 18.6566 14.2251 19C17.6041 17.4047 19.9417 13.9703 19.9417 9.98193C19.9417 4.4758 15.477 0 9.95976 0H9.97085Z" fill="#463B00"/>
</svg>
