<svg width="20" height="20" viewBox="0 0 20 20" fill="none" xmlns="http://www.w3.org/2000/svg">
<path d="M6.49518 10.5664C5.90694 10.5664 5.42969 11.0437 5.42969 11.6319C5.42969 12.2201 5.90694 12.6974 6.49518 12.6974C7.08341 12.6974 7.56065 12.2201 7.56065 11.6319C7.56065 11.0437 7.08341 10.5664 6.49518 10.5664Z" fill="#463B00"/>
<path d="M13.6983 12.6857C14.2865 12.6857 14.7638 12.2084 14.7638 11.6202C14.7638 11.0319 14.2865 10.5547 13.6983 10.5547C13.1101 10.5547 12.6328 11.0319 12.6328 11.6202C12.6328 12.2084 13.1101 12.6857 13.6983 12.6857Z" fill="#463B00"/>
<path d="M10.0042 14.2295C9.34935 14.2295 8.80551 14.5403 8.8943 14.8288C8.97199 15.1174 9.60462 15.5946 10.0042 15.5946C10.4037 15.5946 11.0364 15.1174 11.1141 14.8288C11.2028 14.5403 10.659 14.2295 10.0042 14.2295Z" fill="#463B00"/>
<path d="M10 0C4.48392 0 0 4.47281 0 10C0 10.1554 0.0111035 10.3219 0.0222023 10.4772C0.22198 14.6837 3.01887 18.202 6.84794 19.4784C7.51387 18.6015 7.98002 16.5594 5.4273 15.6049C3.06326 14.717 2.53052 11.9312 2.59711 11.4317C2.59711 11.4095 2.61931 11.3762 2.6304 11.354C3.79578 10.0555 4.00666 9.01221 4.00666 9.01221C4.00666 9.01221 3.12986 5.78246 4.00666 5.24972C4.88346 4.71698 7.42508 6.61487 7.42508 6.61487C7.71365 6.40399 9.06771 6.08213 10 6.08213C10.9323 6.08213 12.2974 6.40399 12.5749 6.61487C12.5749 6.61487 15.1165 4.71698 15.9933 5.24972C16.8701 5.78246 15.9933 9.01221 15.9933 9.01221C15.9933 9.01221 16.2042 10.0666 17.3696 11.354C17.3696 11.3762 17.3918 11.4095 17.4029 11.4317C17.4695 11.9312 16.9478 14.7059 14.5727 15.6049C12.02 16.5705 12.4861 18.6015 13.1521 19.4784C16.9811 18.202 19.778 14.6837 19.9778 10.4772C19.9778 10.3219 20 10.1554 20 10C20 4.48391 15.5272 0 10.0111 0H10Z" fill="#463B00"/>
</svg>
