<?xml version="1.0" encoding="UTF-8"?>
<svg id="Layer_1" data-name="Layer 1" xmlns="http://www.w3.org/2000/svg" viewBox="0 0 128 128">
  <circle cx="64" cy="64" r="29.85"/>
  <g>
    <polygon points="57.89 117.92 60.38 101.48 67.81 101.36 70.81 117.72 57.89 117.92"/>
    <polygon points="21.55 97.81 34.94 87.94 40.27 93.11 30.83 106.8 21.55 97.81"/>
    <polygon points="10.08 57.89 26.52 60.38 26.64 67.81 10.28 70.81 10.08 57.89"/>
    <polygon points="30.19 21.55 40.06 34.94 34.89 40.27 21.2 30.83 30.19 21.55"/>
    <polygon points="70.11 10.08 67.62 26.52 60.19 26.64 57.19 10.28 70.11 10.08"/>
    <polygon points="106.45 30.19 93.06 40.06 87.73 34.89 97.17 21.2 106.45 30.19"/>
    <polygon points="117.92 70.11 101.48 67.62 101.36 60.19 117.72 57.19 117.92 70.11"/>
    <polygon points="97.81 106.45 87.94 93.06 93.11 87.73 106.8 97.17 97.81 106.45"/>
  </g>
</svg>